<svg width="40" height="40" viewBox="0 0 40 40" fill="none" xmlns="http://www.w3.org/2000/svg">
<path d="M31.0925 14.9745C31.0925 12.8652 29.541 11.1683 27.6238 11.1683C25.0269 11.0469 22.3785 11 19.6719 11H18.8282C16.1282 11 13.475 11.0469 10.8782 11.1687C8.96567 11.1687 7.4141 12.875 7.4141 14.9844C7.29692 16.6527 7.24723 18.3214 7.25004 19.9902C7.24535 21.6589 7.29848 23.3292 7.40942 25.0011C7.40942 27.1105 8.96098 28.8214 10.8735 28.8214C13.6016 28.948 16.4 29.0042 19.2454 28.9995C22.0954 29.0089 24.886 28.9495 27.6172 28.8214C29.5344 28.8214 31.086 27.1105 31.086 25.0011C31.1985 23.3277 31.25 21.6589 31.2454 19.9855C31.256 18.3167 31.205 16.6464 31.0925 14.9745ZM16.9532 24.5886V15.3777L23.75 19.9808L16.9532 24.5886Z" fill="white"/>
</svg>
